<svg width="149" height="161" viewBox="0 0 149 161" fill="none" xmlns="http://www.w3.org/2000/svg">
<path d="M52.6544 34.5949C43.3544 32.7184 33.763 32.8098 24.5007 34.8632L24.9515 34.7827C21.5416 35.4418 18.305 36.7962 15.4445 38.7609C12.584 40.7256 10.1614 43.2583 8.32836 46.2003L8.26782 46.3076C5.61942 50.7789 4.62007 56.0321 5.44236 61.1599L5.42891 61.0324C6.37073 67.5261 8.53691 73.3556 11.692 78.5278L11.5776 78.3265C11.7929 78.6619 12.0687 78.937 12.3916 79.1382L12.4051 79.1449C12.7393 79.3267 13.1142 79.4213 13.4949 79.42H13.6025H13.5958C13.8566 79.4104 14.1129 79.3491 14.3497 79.2397C14.5865 79.1303 14.799 78.9749 14.9749 78.7827C15.1699 78.6105 15.3273 78.4002 15.4373 78.1647C15.5472 77.9293 15.6074 77.6738 15.614 77.4142V77.3806C15.6139 77.1714 15.5822 76.9633 15.5198 76.7635L15.5265 76.7769C15.4694 76.6313 15.4375 76.477 15.4324 76.3207C12.5636 71.7002 10.6407 66.5588 9.77473 61.1934L9.74109 60.9519C9.02981 56.6392 9.83044 52.2138 12.0082 48.4208L11.9611 48.5147C13.6103 45.9968 15.7564 43.8401 18.2684 42.1759C20.7804 40.5117 23.6059 39.3748 26.5727 38.8346L26.7073 38.8144C35.1005 37.0699 43.7669 37.0951 52.1498 38.8882L51.7462 38.8144H51.7731C51.8673 38.8144 51.9547 38.848 52.022 38.9083L52.1162 39.0023H52.1565C52.4399 39.0031 52.7205 38.9472 52.9817 38.8377C53.2429 38.7282 53.4793 38.5674 53.6769 38.365C53.88 38.1652 54.0412 37.927 54.1509 37.6644C54.2607 37.4018 54.3168 37.12 54.316 36.8355V36.6946C54.3161 36.2041 54.1528 35.7275 53.8518 35.3395L53.8585 35.3462C53.5523 34.9873 53.1403 34.7337 52.6813 34.6217H52.6678L52.6544 34.5949ZM22.5633 93.1385C27.1202 97.9223 31.9878 102.402 37.1345 106.548L37.4171 106.77C42.3011 110.708 47.7502 114.484 53.4684 117.859L54.1007 118.208C61.2741 122.307 68.7787 125.801 76.5362 128.652L77.6058 129.001C83.9698 131.43 91.4707 133.435 99.2273 134.677L99.8933 134.764C103.196 135.321 106.997 135.636 110.872 135.636C113.832 135.636 116.745 135.448 119.604 135.092L119.261 135.126C124.602 134.536 129.734 132.722 134.256 129.826L134.115 129.907C134.357 129.664 134.569 129.394 134.747 129.102L134.761 129.082C134.942 128.785 135.038 128.443 135.037 128.096V128.055C135.037 127.771 134.981 127.489 134.871 127.226C134.762 126.964 134.601 126.726 134.397 126.526C134.197 126.323 133.958 126.163 133.695 126.053C133.432 125.944 133.149 125.888 132.864 125.889H132.837C132.644 125.911 132.458 125.975 132.292 126.076L132.299 126.07C132.101 126.163 131.919 126.288 131.76 126.439C127.635 129.042 122.951 130.637 118.091 131.094L117.963 131.101C111.781 131.773 105.535 131.574 99.4089 130.511L99.8058 130.564C92.3991 129.357 85.1282 127.432 78.0969 124.815L78.8907 125.077C71.0909 122.273 63.5892 118.704 56.4956 114.424L57.0607 114.739C51.0898 111.345 45.3845 107.506 39.9936 103.255L40.2762 103.469C35.1627 99.4519 30.3718 95.0423 25.9471 90.2808L25.8731 90.2003C25.6427 89.971 25.3681 89.7907 25.0658 89.6703L25.0524 89.6636C24.7934 89.55 24.5145 89.4885 24.2316 89.4825H24.198C23.9127 89.4817 23.6301 89.5376 23.3667 89.6471C23.1034 89.7565 22.8645 89.9172 22.6642 90.1198C22.461 90.3195 22.2999 90.5577 22.1902 90.8203C22.0804 91.0829 22.0243 91.3648 22.0251 91.6493V91.6761C22.0251 91.9444 22.0924 92.1926 22.2135 92.414L22.2067 92.4073L22.5633 93.1385ZM128.8 90.3948C134.965 83.7117 139.616 75.7842 142.437 67.1504L142.564 66.701C143.487 64.057 143.953 61.2761 143.943 58.4766C143.943 54.0826 142.82 49.9503 140.849 46.3479L140.916 46.4821C138.378 42.1637 134.504 38.7816 129.877 36.8422L129.722 36.7885C124.149 34.4735 118.168 33.2921 112.13 33.3136H111.915H111.928H111.854C111.59 33.3131 111.328 33.3699 111.088 33.4799C110.848 33.5899 110.634 33.7506 110.462 33.9509C110.112 34.3661 109.922 34.8914 109.924 35.4334V35.5139V35.5072V35.581C109.924 36.1445 110.125 36.6611 110.469 37.0636V37.0568C110.64 37.2578 110.854 37.419 111.094 37.5291C111.335 37.6392 111.596 37.6955 111.861 37.6941H111.942C112.278 37.6807 112.675 37.6807 113.072 37.6807C118.346 37.6807 123.385 38.7272 127.973 40.6257L127.717 40.5318C131.617 42.1235 134.931 44.8731 137.209 48.4073L137.257 48.4878C138.626 51.2176 139.418 54.1989 139.583 57.2465C139.749 60.2942 139.284 63.3433 138.219 66.2046L138.266 66.0503C135.637 74.0619 131.341 81.4296 125.659 87.6712L125.699 87.6243L125.336 88.3555C125.216 88.5806 125.153 88.8318 125.154 89.0867V89.1135C125.154 89.7106 125.396 90.2539 125.793 90.643C125.994 90.8456 126.232 91.0063 126.496 91.1157C126.759 91.2251 127.042 91.2811 127.327 91.2803H127.408C127.719 91.2809 128.022 91.1848 128.276 91.0053H128.269C128.491 90.8369 128.727 90.6887 128.975 90.5625L129.002 90.5491L128.8 90.3948ZM93.388 35.3328C86.0533 37.0327 78.8678 39.3186 71.9011 42.1686L72.8429 41.8265C65.564 44.7781 59.4691 47.817 53.6433 51.2517L54.316 50.8827C46.7327 55.2181 39.5787 60.2607 32.9502 65.9429L33.1318 65.7953C27.3343 70.7155 22.049 76.2061 17.3564 82.1838L17.168 82.432C13.2174 87.4321 10.0238 92.9831 7.68927 98.9077L7.53455 99.3504C6.0162 103.09 5.24165 107.089 5.254 111.124C5.254 112.526 5.34818 113.908 5.52309 115.256L5.50291 115.095C5.63073 115.598 5.88636 116.034 6.23618 116.376C6.59273 116.712 7.07036 116.913 7.60182 116.913H7.71618H7.74982C8.03347 116.913 8.3144 116.858 8.57647 116.75C8.83854 116.641 9.07658 116.483 9.27691 116.282C9.48005 116.082 9.6412 115.844 9.75093 115.582C9.86067 115.319 9.91678 115.037 9.916 114.753V114.364C9.37145 109.471 10.1037 104.522 12.0418 99.9944L11.9678 100.182C14.2221 94.4615 17.3366 89.1163 21.2044 84.3305L21.1169 84.4445C25.6691 78.7562 30.7754 73.5317 36.3609 68.8476L36.5291 68.7135C42.7352 63.4819 49.3867 58.7997 56.4082 54.7199L57.0742 54.3576C61.8775 51.4731 67.5418 48.622 73.4147 46.1735L74.296 45.8515C80.1902 43.4002 86.2678 41.4129 92.4731 39.9079L93.3745 39.7201C94.1153 39.5836 94.8095 39.2629 95.3927 38.7876L95.386 38.7943C95.7339 38.426 95.9266 37.9385 95.9242 37.4325V37.3185V37.3252C95.9146 37.0651 95.8532 36.8096 95.7434 36.5734C95.6337 36.3373 95.4779 36.1254 95.2851 35.95C95.1125 35.7555 94.9015 35.5985 94.6654 35.4889C94.4293 35.3793 94.1731 35.3193 93.9127 35.3127H93.3745L93.388 35.3328ZM42.2002 128.418C45.1263 137.286 49.8942 145.439 56.1929 152.346L56.1458 152.293C58.4285 154.926 61.2348 157.058 64.387 158.553C67.5391 160.049 70.9684 160.875 74.4575 160.98H74.4978C79.5626 160.938 84.4762 159.254 88.4973 156.183L88.4435 156.224C93.1587 152.672 97.1135 148.215 100.075 143.116L100.189 142.901C100.292 142.707 100.38 142.505 100.452 142.297L100.465 142.264C100.528 142.069 100.56 141.865 100.559 141.66V141.593C100.56 141.308 100.504 141.026 100.394 140.764C100.284 140.501 100.123 140.263 99.9202 140.063C99.7198 139.861 99.481 139.7 99.2176 139.591C98.9543 139.481 98.6717 139.425 98.3864 139.426H98.346C97.9922 139.426 97.6452 139.523 97.3436 139.708L97.3504 139.701C97.0218 139.908 96.7437 140.185 96.5364 140.513L96.5296 140.526C93.8999 145.119 90.4103 149.166 86.2504 152.447L86.1629 152.514C82.8423 155.124 78.7524 156.571 74.5247 156.633H74.5113C71.4972 156.491 68.5463 155.722 65.8489 154.373C63.1514 153.025 60.7673 151.128 58.8502 148.804L58.8233 148.764C53.3298 142.553 49.1597 135.293 46.5662 127.425L46.4451 126.989C46.1894 126.616 45.8838 126.28 45.5369 125.989L45.5302 125.983C45.18 125.688 44.7369 125.527 44.2789 125.526H44.2453C43.9845 125.536 43.7282 125.597 43.4914 125.707C43.2546 125.816 43.0421 125.971 42.8662 126.164C42.663 126.363 42.5019 126.602 42.3922 126.864C42.2824 127.127 42.2263 127.409 42.2271 127.693V128.451L42.2002 128.418ZM108.249 124.58C109.944 119.355 111.417 113.056 112.386 106.595L112.467 105.925C113.402 99.8871 113.933 92.9238 113.933 85.8398V85.6051V85.6185V84.0353C113.933 75.1937 113.133 66.54 111.599 58.1478L111.733 59.0266C110.395 51.2211 108.214 43.5829 105.228 36.2451L105.497 36.9831C103.098 30.882 99.8161 25.164 95.756 20.011L95.8636 20.1518C92.6908 15.9918 88.5791 12.6363 83.8622 10.3577L83.6671 10.2705C83.6089 10.2123 83.5397 10.1664 83.4634 10.1353C83.3872 10.1042 83.3055 10.0886 83.2231 10.0893H82.6782C82.1335 10.0882 81.6064 10.2809 81.1915 10.6327C80.9899 10.8038 80.835 11.0167 80.7246 11.2565C80.6142 11.4964 80.5577 11.7574 80.5591 12.0213V12.1018V12.1488C80.5591 12.605 80.6936 13.0343 80.9291 13.3898L80.9224 13.3831C81.1376 13.7186 81.4538 13.9735 81.8238 14.1076L81.8373 14.1143C86.2042 16.2365 89.9934 19.3776 92.8835 23.2712L92.944 23.3517C96.4153 27.9134 99.3753 33.1325 101.595 38.7339L101.75 39.1767C104.185 45.1471 106.224 52.1774 107.522 59.456L107.616 60.1067C108.962 67.298 109.729 75.5694 109.729 84.0219V84.5586V84.5317V85.7392C109.732 92.5579 109.21 99.3667 108.168 106.106L108.262 105.368C107.271 112.051 105.718 118.639 103.62 125.063L103.862 124.212L104.044 123.675V123.883C104.044 124.48 104.286 125.023 104.683 125.412C104.883 125.615 105.122 125.776 105.386 125.885C105.649 125.994 105.932 126.05 106.217 126.05H106.277C106.737 126.048 107.182 125.887 107.535 125.593C107.857 125.345 108.108 125.017 108.262 124.641L108.269 124.627L108.249 124.58ZM148.982 122.38V122.246C148.982 119.462 147.825 116.946 145.962 115.149C145.022 114.191 143.9 113.431 142.662 112.913C141.423 112.394 140.093 112.128 138.75 112.13H138.515H138.528H138.4C135.602 112.13 133.079 113.29 131.283 115.149C129.419 116.946 128.255 119.462 128.255 122.246V122.387V122.595C128.255 125.412 129.413 127.961 131.283 129.786C133.086 131.651 135.608 132.812 138.407 132.812H138.541H138.757C141.582 132.812 144.132 131.658 145.968 129.793C146.925 128.856 147.686 127.737 148.204 126.504C148.723 125.27 148.99 123.946 148.989 122.608V122.36V122.373L148.982 122.38ZM144.576 122.38V122.514C144.577 123.288 144.424 124.055 144.125 124.769C143.825 125.483 143.387 126.13 142.833 126.673C142.289 127.225 141.64 127.663 140.923 127.961C140.207 128.259 139.439 128.412 138.663 128.411H138.521H138.508C137.728 128.412 136.955 128.259 136.235 127.96C135.514 127.662 134.86 127.225 134.31 126.673C133.73 126.14 133.268 125.493 132.952 124.772C132.636 124.052 132.473 123.274 132.473 122.487V122.373V122.38C132.475 121.592 132.638 120.812 132.953 120.089C133.268 119.365 133.727 118.714 134.303 118.174C134.843 117.597 135.496 117.137 136.222 116.822C136.947 116.507 137.73 116.344 138.521 116.343H138.629C140.284 116.343 141.777 117.047 142.82 118.167L142.827 118.174C143.903 119.247 144.569 120.73 144.569 122.367L144.576 122.38ZM10.4542 132.838H10.582C13.3738 132.838 15.8965 131.685 17.6995 129.826C18.6606 128.889 19.4241 127.769 19.9451 126.533C20.4662 125.297 20.7342 123.969 20.7335 122.628V122.286C20.7335 119.496 19.5696 116.98 17.7062 115.189C16.7846 114.234 15.6791 113.474 14.4561 112.956C13.2332 112.437 11.9177 112.17 10.5887 112.17H10.4475H10.4542H10.2389C7.41345 112.17 4.85709 113.324 3.02727 115.189C1.16382 116.987 0 119.502 0 122.286V122.427V122.42V122.635C0 125.453 1.15709 128.002 3.02727 129.826C3.96716 130.781 5.08845 131.539 6.32555 132.056C7.56266 132.573 8.89076 132.839 10.2322 132.838H10.4676H10.4542ZM10.4542 128.444H10.3196C9.54351 128.446 8.7749 128.293 8.05875 127.995C7.3426 127.696 6.69327 127.258 6.14873 126.707C5.59569 126.164 5.15676 125.517 4.85759 124.802C4.55842 124.088 4.40502 123.322 4.40636 122.548V122.394C4.40636 120.757 5.07236 119.281 6.14873 118.208C6.68348 117.63 7.33262 117.168 8.05515 116.853C8.77767 116.538 9.5579 116.376 10.3465 116.376H10.4609C12.1225 116.383 13.616 117.081 14.6722 118.201C15.2505 118.739 15.7118 119.391 16.0277 120.114C16.3436 120.838 16.5073 121.618 16.5087 122.407V122.514C16.5093 123.299 16.3471 124.076 16.0322 124.795C15.7173 125.514 15.2565 126.161 14.6789 126.694L14.6722 126.7C13.561 127.799 12.0591 128.414 10.4945 128.411H10.4542V128.444ZM74.4978 20.6818H74.7198C77.5453 20.6818 80.0949 19.528 81.9315 17.6631C83.8016 15.8652 84.9655 13.3496 84.9655 10.5589V10.2101C84.9655 7.39259 83.8084 4.85013 81.9382 3.01876C80.9988 2.06143 79.8768 1.30118 78.6383 0.782745C77.3997 0.264313 76.0697 -0.00182069 74.7265 9.37444e-06H74.4911H74.5045H74.3767C71.5782 9.37444e-06 69.0555 1.16055 67.2593 3.01876C65.3891 4.85013 64.232 7.39259 64.232 10.2101V10.4449V10.4315V10.5589C64.232 13.3496 65.3958 15.8652 67.2593 17.6563C69.0622 19.5146 71.5849 20.6751 74.3767 20.6751L74.4978 20.6818ZM74.4978 16.2946H74.4507C73.6886 16.2955 72.9342 16.142 72.2334 15.8433C71.5326 15.5446 70.9 15.107 70.374 14.5571C69.8225 14.0326 69.3837 13.4017 69.0842 12.7029C68.7846 12.0041 68.6307 11.2518 68.6316 10.4918V10.304C68.6316 8.67388 69.2976 7.20476 70.374 6.14484C70.9 5.5949 71.5326 5.15731 72.2334 4.85863C72.9342 4.55996 73.6886 4.40643 74.4507 4.40738H74.6391C76.2738 4.40738 77.7471 5.07151 78.81 6.14484C79.8864 7.20476 80.5524 8.67388 80.5524 10.304V10.4449V10.4382V10.4851C80.5533 11.2451 80.3994 11.9974 80.0998 12.6962C79.8003 13.395 79.3615 14.0259 78.81 14.5504C78.2655 15.1042 77.6153 15.5438 76.8979 15.8433C76.1804 16.1429 75.4102 16.2963 74.6324 16.2946H74.4978Z" fill="#2D728F"/>
</svg>
